<?xml version="1.0" standalone="no"?><!DOCTYPE svg PUBLIC "-//W3C//DTD SVG 1.1//EN" "http://www.w3.org/Graphics/SVG/1.1/DTD/svg11.dtd"><svg t="1654389521658" class="icon" viewBox="0 0 1024 1024" version="1.1" xmlns="http://www.w3.org/2000/svg" p-id="24997" xmlns:xlink="http://www.w3.org/1999/xlink" width="200" height="200"><defs><style type="text/css"></style></defs><path d="M857.7408 942.3872H184.6784c-28.2368 0-51.2-22.9632-51.2-51.2V163.3024c0-28.2368 22.9632-51.2 51.2-51.2H857.728c28.2368 0 51.2 22.9632 51.2 51.2v727.8848c0.0128 28.224-22.9632 51.2-51.1872 51.2zM184.6784 163.3024v727.8848h673.0752l-0.0256-727.8848H184.6784z" p-id="24998"></path><path d="M518.3744 420.5056c-1.4592 0-2.9312-0.0128-4.4032-0.0256-120.5248-1.6-201.0112-67.3664-230.016-95.5648-10.1376-9.856-10.368-26.0608-0.512-36.1984 9.856-10.1376 26.0608-10.368 36.1984-0.512 24.6144 23.9232 92.8896 79.7184 195.008 81.0752 1.2416 0.0128 2.496 0.0256 3.7248 0.0256 110.8608 0 184.0128-65.8176 203.968-86.1824 9.8944-10.0992 26.0992-10.2656 36.1984-0.3712 10.0992 9.8944 10.2656 26.0992 0.3712 36.1984-23.5008 24-109.7344 101.5552-240.5376 101.5552z" p-id="24999"></path></svg>