<?xml version="1.0" standalone="no"?><!DOCTYPE svg PUBLIC "-//W3C//DTD SVG 1.1//EN" "http://www.w3.org/Graphics/SVG/1.1/DTD/svg11.dtd"><svg t="1654414530182" class="icon" viewBox="0 0 1024 1024" version="1.1" xmlns="http://www.w3.org/2000/svg" p-id="4377" xmlns:xlink="http://www.w3.org/1999/xlink" width="200" height="200"><defs><style type="text/css"></style></defs><path d="M832 192v640H192V192h640m0-64H192a64 64 0 0 0-64 64v640a64 64 0 0 0 64 64h640a64 64 0 0 0 64-64V192a64 64 0 0 0-64-64z" p-id="4378"></path><path d="M738.29 353.6a32 32 0 0 0-45.26 0l-248.9 248.91L331 489.33a32 32 0 0 0-45.26 45.27l135.74 135.75a32 32 0 0 0 45.26 0l271.55-271.48a32 32 0 0 0 0-45.27z" p-id="4379"></path></svg>