<?xml version="1.0" standalone="no"?><!DOCTYPE svg PUBLIC "-//W3C//DTD SVG 1.1//EN" "http://www.w3.org/Graphics/SVG/1.1/DTD/svg11.dtd"><svg t="1654400668546" class="icon" viewBox="0 0 1024 1024" version="1.1" xmlns="http://www.w3.org/2000/svg" p-id="39626" xmlns:xlink="http://www.w3.org/1999/xlink" width="200" height="200"><defs><style type="text/css"></style></defs><path d="M512 85.333333C276.48 85.333333 85.333333 276.48 85.333333 512S276.48 938.666667 512 938.666667 938.666667 747.52 938.666667 512 747.52 85.333333 512 85.333333z m205.937778 341.333334L481.28 651.946667c-5.688889 5.688889-12.515556 7.964444-19.342222 7.964444s-13.653333-2.275556-19.342222-7.964444l-136.533334-129.706667c-11.377778-11.377778-11.377778-28.444444-1.137778-39.822222 11.377778-11.377778 28.444444-11.377778 39.822223-1.137778L461.937778 591.644444l216.177778-207.075555c11.377778-11.377778 29.582222-10.24 39.822222 1.137778 11.377778 11.377778 11.377778 29.582222 0 40.96z" p-id="39627"></path></svg>