<?xml version="1.0" standalone="no"?><!DOCTYPE svg PUBLIC "-//W3C//DTD SVG 1.1//EN" "http://www.w3.org/Graphics/SVG/1.1/DTD/svg11.dtd"><svg t="1654388454626" class="icon" viewBox="0 0 1024 1024" version="1.1" xmlns="http://www.w3.org/2000/svg" p-id="20502" xmlns:xlink="http://www.w3.org/1999/xlink" width="200" height="200"><defs><style type="text/css"></style></defs><path d="M224 640c-70.72 0-128-57.28-128-128s57.28-128 128-128 128 57.28 128 128-57.28 128-128 128m736-160H413.12c-15.04-90.88-94.048-160-189.12-160-105.92 0-192 86.08-192 192s86.08 192 192 192c95.072 0 174.08-69.12 189.12-160H704v128c0 17.6 14.4 32 32 32 17.632 0 32-14.4 32-32v-128h96v64c0 17.6 14.4 32 32 32 17.632 0 32-14.4 32-32v-64h32c17.632 0 32-14.4 32-32s-14.368-32-32-32" p-id="20503"></path></svg>