<?xml version="1.0" standalone="no"?><!DOCTYPE svg PUBLIC "-//W3C//DTD SVG 1.1//EN" "http://www.w3.org/Graphics/SVG/1.1/DTD/svg11.dtd"><svg t="1654401098911" class="icon" viewBox="0 0 1024 1024" version="1.1" xmlns="http://www.w3.org/2000/svg" p-id="51551" xmlns:xlink="http://www.w3.org/1999/xlink" width="200" height="200"><defs><style type="text/css"></style></defs><path d="M660.6 425.1c25.2 0 50.8 7.5 76 22.2 25.8 15 50.8 37.6 72.5 65.2 21.8 27.8 39.8 60.3 52.2 94.1 12.3 33.4 18.7 67.3 18.7 98.1 0 54-15.9 92.8-48.6 118.5-33.9 26.6-86.8 40.7-153.1 40.7H345.7c-66.7 0-119.7-14-153.4-40.5C159.8 797.9 144 759 144 704.7c0-30.8 6.5-64.7 18.7-98.1 12.4-33.8 30.5-66.4 52.2-94.1 21.6-27.6 46.7-50.2 72.5-65.2 25.2-14.7 50.8-22.2 76-22.2h297.2m0-80H363.4C198.8 345.1 64 540 64 704.7 64 870.1 180.3 944 345.7 944h332.6C843 944 960 869.4 960 704.7c0-164.7-134.8-359.6-299.4-359.6z" p-id="51552"></path><path d="M661.9 480c-22.9 42.9-41.1 76.8-54.6 101.6-2.6 4.7 0.7 10.6 5.9 10.6h24.7c3.8 0 6.8 3.2 6.8 7.1v31.2c0 3.9-3.1 7.1-6.8 7.1h-56.1c-2.5 0-4.8 1.4-6 3.6l-17.3 32.2v2.9h79.3c3.8 0 6.8 3.2 6.8 7.1V715c0 3.9-3.1 7.1-6.8 7.1h-72.5c-3.8 0-6.8 3.2-6.8 7.1v83.3c0 3.9-3.1 7.1-6.8 7.1h-70.5c-3.8 0-6.8-3.2-6.8-7.1v-83.3c0-3.9-3.1-7.1-6.8-7.1h-78.1c-3.8 0-6.8-3.2-6.8-7.1v-31.6c0-3.9 3.1-7.1 6.8-7.1h84.9c-0.8-5.8-6.9-17.6-18.3-35.4-1.3-2-3.5-3.3-5.8-3.3h-60.8c-3.8 0-6.8-3.2-6.8-7.1v-31.2c0-3.9 3.1-7.1 6.8-7.1h25.9c5.3 0 8.6-6.1 5.8-10.8L362.1 480c-2.8-4.7 0.5-10.8 5.8-10.8H446c2.5 0 4.9 1.5 6 3.8l57.6 113.2c2.6 5.1 9.7 5 12.1-0.2l53.9-112.8c1.2-2.4 3.5-3.9 6.1-3.9H656c5.2 0 8.4 5.9 5.9 10.7z" p-id="51553"></path><path d="M512 162.5c22.2 16.7 56.3 36 99.2 36 33.2 0 68.1-3.7 100.9-27.7 1.4 6.5 2.6 16.7 2.6 32.3 0 13.7-2.6 22.1-5.3 24.3-3.1 2.6-12.3 5.7-27.9 5.7H342.4c-15.6 0-24.7-3.1-27.9-5.7-2.6-2.2-5.3-10.6-5.3-24.3 0-15.6 1.2-25.8 2.6-32.3 32.9 24.1 67.7 27.7 100.9 27.7 43 0 77.1-19.3 99.3-36m0-82.5c-9.5 0.2-18.9 3.7-26.6 10.8-18.4 16.8-42.6 35.7-72.6 35.7-32.7 0-49.6-4.7-65.9-20.1C336.6 95.3 319.4 88 307.8 88c-2 0-3.9 0.2-5.5 0.7-47.3 13.4-65 48.7-65 114.4 0 75.6 47.3 102 105.1 102h339.2c57.8 0 105.1-26.4 105.1-102 0-65.7-17.7-101-65-114.4-1.6-0.5-3.5-0.7-5.5-0.7-11.6 0-28.8 7.2-39.2 18.4-16.2 15.4-33.2 20.1-65.9 20.1-30 0-54.1-18.9-72.6-35.7-7.6-7.1-17-10.6-26.5-10.8z" p-id="51554"></path></svg>