<?xml version="1.0" standalone="no"?><!DOCTYPE svg PUBLIC "-//W3C//DTD SVG 1.1//EN" "http://www.w3.org/Graphics/SVG/1.1/DTD/svg11.dtd"><svg t="1654388479728" class="icon" viewBox="0 0 1024 1024" version="1.1" xmlns="http://www.w3.org/2000/svg" p-id="21344" xmlns:xlink="http://www.w3.org/1999/xlink" width="200" height="200"><defs><style type="text/css"></style></defs><path d="M748 256.8l-48.8-150.4c-6.4-19.2-27.2-30.4-47.2-24L96 262.4l652-5.6zM817.6 701.6v37.6c0 20-23.2 31.2-39.2 19.2l-184-144.8c-12-9.6-12-28 0-37.6l184.8-144.8c16-12 39.2-0.8 39.2 19.2V488H1016V333.6c0-22.4-18.4-40-40-40H48c-22.4 0-40 18.4-40 40V856c0 22.4 18.4 40 40 40h928c22.4 0 40-18.4 40-40V701.6h-198.4z" fill="#666666" p-id="21345"></path><path d="M987.2 530.4H783.2v-22.4c0-12-13.6-19.2-23.2-11.2L648 583.2c-7.2 5.6-7.2 16.8 0 23.2l112 87.2c9.6 7.2 23.2 0.8 23.2-11.2v-22.4h204c8 0 14.4-6.4 14.4-14.4V544.8c0.8-8-6.4-14.4-14.4-14.4z" fill="#666666" p-id="21346"></path></svg>