<?xml version="1.0" standalone="no"?><!DOCTYPE svg PUBLIC "-//W3C//DTD SVG 1.1//EN" "http://www.w3.org/Graphics/SVG/1.1/DTD/svg11.dtd"><svg t="1654953330458" class="icon" viewBox="0 0 1024 1024" version="1.1" xmlns="http://www.w3.org/2000/svg" p-id="3330" xmlns:xlink="http://www.w3.org/1999/xlink" width="200" height="200"><defs><style type="text/css"></style></defs><path d="M303.936 836C331.072 836 357.696 822.88 373.888 798.592 399.616 760 389.184 707.84 350.592 682.112L284.512 638.048C295.84 634.976 307.712 633.312 320 633.312 394.4 633.312 454.688 693.6 454.688 768 454.688 842.4 394.4 902.688 320 902.688 247.584 902.688 188.544 845.568 185.44 773.92L257.408 821.888C271.712 831.456 287.904 836 303.936 836ZM853.344 0C947.232 0 1024 76.8 1024 170.688L1024 853.312C1024 947.264 947.232 1024 853.344 1024L170.688 1024C76.8 1024 0 947.264 0 853.312L0 650.304 121.344 731.168C109.696 794.336 128.256 862.016 177.12 910.88 256.032 989.76 383.968 989.76 462.88 910.88 511.328 862.4 530.016 795.424 518.944 732.704L768 509.728 768 509.728C814.24 503.072 858.816 481.984 894.4 446.4 981.856 358.912 981.856 217.088 894.4 129.6 806.912 42.144 665.088 42.144 577.6 129.6 542.016 165.184 520.928 209.76 514.272 256L514.272 256 309.6 566.24C277.76 567.872 246.208 576.992 217.856 593.632L0 448.384 0 170.688C0 76.8 76.8 0 170.688 0L853.344 0ZM896 288c0-88.352-71.648-160-160-160s-160 71.648-160 160 71.648 160 160 160S896 376.352 896 288zM640 288c0-53.024 42.976-96 96-96s96 42.976 96 96-42.976 96-96 96S640 341.024 640 288z" p-id="3331"></path></svg>