<?xml version="1.0" standalone="no"?><!DOCTYPE svg PUBLIC "-//W3C//DTD SVG 1.1//EN" "http://www.w3.org/Graphics/SVG/1.1/DTD/svg11.dtd"><svg t="1654387788289" class="icon" viewBox="0 0 2218 1024" version="1.1" xmlns="http://www.w3.org/2000/svg" p-id="14738" xmlns:xlink="http://www.w3.org/1999/xlink" width="433.203125" height="200"><defs><style type="text/css"></style></defs><path d="M2080 302.805333c0 89.728-71.936 162.816-161.194667 162.816-88.832 0-161.194667-72.661333-161.194666-162.816 0-89.685333 71.936-162.773333 161.194666-162.773333 88.832 0 161.194667 73.088 161.194667 162.773333zM1917.952 0c-165.12 0-299.008 134.357333-300.757333 300.629333l-187.178667 271.36a220.501333 220.501333 0 0 0-137.813333 30.634667L443.733333 258.133333c-22.101333-101.546667-112.213333-178.090667-219.306666-178.090666C100.992 79.658667 0 182.058667 0 306.773333c0 124.714667 100.949333 226.688 224.426667 226.688 42.069333 0 81.066667-11.818667 114.432-32l848.469333 343.978667c22.101333 101.973333 111.786667 178.56 219.306667 178.56 116.096 0 212.309333-90.154667 223.146666-204.373333l288.170667-212.650667c165.973333 0 300.714667-135.68 300.714667-303.274667C2218.666667 136.106667 2083.882667 0 1917.952 0z m0 100.224c111.36 0 201.472 91.434667 201.472 203.477333 0 112.469333-90.538667 203.050667-201.472 203.050667-111.36 0-201.514667-91.008-201.514667-203.093333 0-112.426667 90.112-203.434667 201.514667-203.434667zM224.426667 139.605333c63.274667 0 118.314667 35.84 146.048 88.405334l-81.92-33.28v0.426666a130.56 130.56 0 0 0-165.973334 74.837334c-26.453333 66.56 3.925333 141.354667 68.053334 170.24v0.426666l69.76 28.032a157.994667 157.994667 0 0 1-35.541334 3.925334c-91.434667 0-165.12-74.410667-165.12-166.741334-0.426667-91.434667 73.258667-166.272 164.693334-166.272z m1182.122666 490.965334c91.434667 0 165.12 74.410667 165.12 166.741333 0 92.330667-73.685333 166.741333-165.12 166.741333a163.84 163.84 0 0 1-146.005333-88.832c27.306667 10.922667 54.186667 21.888 81.450667 33.28a130.986667 130.986667 0 0 0 170.709333-73.557333 133.162667 133.162667 0 0 0-73.216-172.373333l-68.906667-28.032c12.16-2.176 23.850667-3.968 35.968-3.968z" p-id="14739"></path></svg>